M48
; DRILL file {KiCad 5.1.5-1.fc30} date Mon 14 Dec 2020 02:28:43 PM CST
; FORMAT={-:-/ absolute / metric / decimal}
; #@! TF.CreationDate,2020-12-14T14:28:43-06:00
; #@! TF.GenerationSoftware,Kicad,Pcbnew,5.1.5-1.fc30
; #@! TF.FileFunction,Plated,1,2,PTH
FMAT,2
METRIC
T1C0.400
T2C1.000
%
G90
G05
T1
X91.313Y-74.295
X93.091Y-78.74
X94.615Y-75.565
X98.425Y-74.422
X100.076Y-78.867
X101.299Y-108.538
X101.6Y-75.692
X105.41Y-79.121
X105.918Y-115.062
X106.925Y-84.312
X106.934Y-94.742
X108.966Y-111.76
X110.871Y-100.838
X114.466Y-75.525
X114.466Y-87.034
X114.979Y-109.557
X115.779Y-103.296
T2
X124.587Y-92.964
X124.587Y-95.504
X124.587Y-98.044
X124.587Y-100.584
X124.587Y-103.124
X124.587Y-105.664
X124.587Y-108.204
X96.266Y-93.726
X98.806Y-93.726
X92.456Y-88.011
X94.996Y-88.011
X100.33Y-82.296
X102.87Y-82.296
X100.33Y-88.011
X102.87Y-88.011
X92.456Y-82.296
X94.996Y-82.296
T0
M30
