G04 #@! TF.GenerationSoftware,KiCad,Pcbnew,5.1.5-1.fc30*
G04 #@! TF.CreationDate,2020-12-14T14:28:46-06:00*
G04 #@! TF.ProjectId,auxiliary_power,61757869-6c69-4617-9279-5f706f776572,rev?*
G04 #@! TF.SameCoordinates,Original*
G04 #@! TF.FileFunction,Paste,Bot*
G04 #@! TF.FilePolarity,Positive*
%FSLAX46Y46*%
G04 Gerber Fmt 4.6, Leading zero omitted, Abs format (unit mm)*
G04 Created by KiCad (PCBNEW 5.1.5-1.fc30) date 2020-12-14 14:28:46*
%MOMM*%
%LPD*%
G04 APERTURE LIST*
%ADD10R,3.050000X2.750000*%
%ADD11R,2.200000X0.800000*%
%ADD12C,0.100000*%
%ADD13R,2.200000X1.200000*%
%ADD14R,2.300000X3.500000*%
G04 APERTURE END LIST*
D10*
X111559000Y-89283000D03*
X114909000Y-92333000D03*
X111559000Y-92333000D03*
X114909000Y-89283000D03*
D11*
X106934000Y-88528000D03*
X106934000Y-89668000D03*
X106934000Y-91948000D03*
X106934000Y-93088000D03*
D12*
G36*
X103519504Y-90432204D02*
G01*
X103543773Y-90435804D01*
X103567571Y-90441765D01*
X103590671Y-90450030D01*
X103612849Y-90460520D01*
X103633893Y-90473133D01*
X103653598Y-90487747D01*
X103671777Y-90504223D01*
X103688253Y-90522402D01*
X103702867Y-90542107D01*
X103715480Y-90563151D01*
X103725970Y-90585329D01*
X103734235Y-90608429D01*
X103740196Y-90632227D01*
X103743796Y-90656496D01*
X103745000Y-90681000D01*
X103745000Y-91431000D01*
X103743796Y-91455504D01*
X103740196Y-91479773D01*
X103734235Y-91503571D01*
X103725970Y-91526671D01*
X103715480Y-91548849D01*
X103702867Y-91569893D01*
X103688253Y-91589598D01*
X103671777Y-91607777D01*
X103653598Y-91624253D01*
X103633893Y-91638867D01*
X103612849Y-91651480D01*
X103590671Y-91661970D01*
X103567571Y-91670235D01*
X103543773Y-91676196D01*
X103519504Y-91679796D01*
X103495000Y-91681000D01*
X102245000Y-91681000D01*
X102220496Y-91679796D01*
X102196227Y-91676196D01*
X102172429Y-91670235D01*
X102149329Y-91661970D01*
X102127151Y-91651480D01*
X102106107Y-91638867D01*
X102086402Y-91624253D01*
X102068223Y-91607777D01*
X102051747Y-91589598D01*
X102037133Y-91569893D01*
X102024520Y-91548849D01*
X102014030Y-91526671D01*
X102005765Y-91503571D01*
X101999804Y-91479773D01*
X101996204Y-91455504D01*
X101995000Y-91431000D01*
X101995000Y-90681000D01*
X101996204Y-90656496D01*
X101999804Y-90632227D01*
X102005765Y-90608429D01*
X102014030Y-90585329D01*
X102024520Y-90563151D01*
X102037133Y-90542107D01*
X102051747Y-90522402D01*
X102068223Y-90504223D01*
X102086402Y-90487747D01*
X102106107Y-90473133D01*
X102127151Y-90460520D01*
X102149329Y-90450030D01*
X102172429Y-90441765D01*
X102196227Y-90435804D01*
X102220496Y-90432204D01*
X102245000Y-90431000D01*
X103495000Y-90431000D01*
X103519504Y-90432204D01*
G37*
G36*
X103519504Y-93232204D02*
G01*
X103543773Y-93235804D01*
X103567571Y-93241765D01*
X103590671Y-93250030D01*
X103612849Y-93260520D01*
X103633893Y-93273133D01*
X103653598Y-93287747D01*
X103671777Y-93304223D01*
X103688253Y-93322402D01*
X103702867Y-93342107D01*
X103715480Y-93363151D01*
X103725970Y-93385329D01*
X103734235Y-93408429D01*
X103740196Y-93432227D01*
X103743796Y-93456496D01*
X103745000Y-93481000D01*
X103745000Y-94231000D01*
X103743796Y-94255504D01*
X103740196Y-94279773D01*
X103734235Y-94303571D01*
X103725970Y-94326671D01*
X103715480Y-94348849D01*
X103702867Y-94369893D01*
X103688253Y-94389598D01*
X103671777Y-94407777D01*
X103653598Y-94424253D01*
X103633893Y-94438867D01*
X103612849Y-94451480D01*
X103590671Y-94461970D01*
X103567571Y-94470235D01*
X103543773Y-94476196D01*
X103519504Y-94479796D01*
X103495000Y-94481000D01*
X102245000Y-94481000D01*
X102220496Y-94479796D01*
X102196227Y-94476196D01*
X102172429Y-94470235D01*
X102149329Y-94461970D01*
X102127151Y-94451480D01*
X102106107Y-94438867D01*
X102086402Y-94424253D01*
X102068223Y-94407777D01*
X102051747Y-94389598D01*
X102037133Y-94369893D01*
X102024520Y-94348849D01*
X102014030Y-94326671D01*
X102005765Y-94303571D01*
X101999804Y-94279773D01*
X101996204Y-94255504D01*
X101995000Y-94231000D01*
X101995000Y-93481000D01*
X101996204Y-93456496D01*
X101999804Y-93432227D01*
X102005765Y-93408429D01*
X102014030Y-93385329D01*
X102024520Y-93363151D01*
X102037133Y-93342107D01*
X102051747Y-93322402D01*
X102068223Y-93304223D01*
X102086402Y-93287747D01*
X102106107Y-93273133D01*
X102127151Y-93260520D01*
X102149329Y-93250030D01*
X102172429Y-93241765D01*
X102196227Y-93235804D01*
X102220496Y-93232204D01*
X102245000Y-93231000D01*
X103495000Y-93231000D01*
X103519504Y-93232204D01*
G37*
G36*
X109638703Y-107418722D02*
G01*
X109653264Y-107420882D01*
X109667543Y-107424459D01*
X109681403Y-107429418D01*
X109694710Y-107435712D01*
X109707336Y-107443280D01*
X109719159Y-107452048D01*
X109730066Y-107461934D01*
X109739952Y-107472841D01*
X109748720Y-107484664D01*
X109756288Y-107497290D01*
X109762582Y-107510597D01*
X109767541Y-107524457D01*
X109771118Y-107538736D01*
X109773278Y-107553297D01*
X109774000Y-107568000D01*
X109774000Y-109218000D01*
X109773278Y-109232703D01*
X109771118Y-109247264D01*
X109767541Y-109261543D01*
X109762582Y-109275403D01*
X109756288Y-109288710D01*
X109748720Y-109301336D01*
X109739952Y-109313159D01*
X109730066Y-109324066D01*
X109719159Y-109333952D01*
X109707336Y-109342720D01*
X109694710Y-109350288D01*
X109681403Y-109356582D01*
X109667543Y-109361541D01*
X109653264Y-109365118D01*
X109638703Y-109367278D01*
X109624000Y-109368000D01*
X109324000Y-109368000D01*
X109309297Y-109367278D01*
X109294736Y-109365118D01*
X109280457Y-109361541D01*
X109266597Y-109356582D01*
X109253290Y-109350288D01*
X109240664Y-109342720D01*
X109228841Y-109333952D01*
X109217934Y-109324066D01*
X109208048Y-109313159D01*
X109199280Y-109301336D01*
X109191712Y-109288710D01*
X109185418Y-109275403D01*
X109180459Y-109261543D01*
X109176882Y-109247264D01*
X109174722Y-109232703D01*
X109174000Y-109218000D01*
X109174000Y-107568000D01*
X109174722Y-107553297D01*
X109176882Y-107538736D01*
X109180459Y-107524457D01*
X109185418Y-107510597D01*
X109191712Y-107497290D01*
X109199280Y-107484664D01*
X109208048Y-107472841D01*
X109217934Y-107461934D01*
X109228841Y-107452048D01*
X109240664Y-107443280D01*
X109253290Y-107435712D01*
X109266597Y-107429418D01*
X109280457Y-107424459D01*
X109294736Y-107420882D01*
X109309297Y-107418722D01*
X109324000Y-107418000D01*
X109624000Y-107418000D01*
X109638703Y-107418722D01*
G37*
G36*
X110908703Y-107418722D02*
G01*
X110923264Y-107420882D01*
X110937543Y-107424459D01*
X110951403Y-107429418D01*
X110964710Y-107435712D01*
X110977336Y-107443280D01*
X110989159Y-107452048D01*
X111000066Y-107461934D01*
X111009952Y-107472841D01*
X111018720Y-107484664D01*
X111026288Y-107497290D01*
X111032582Y-107510597D01*
X111037541Y-107524457D01*
X111041118Y-107538736D01*
X111043278Y-107553297D01*
X111044000Y-107568000D01*
X111044000Y-109218000D01*
X111043278Y-109232703D01*
X111041118Y-109247264D01*
X111037541Y-109261543D01*
X111032582Y-109275403D01*
X111026288Y-109288710D01*
X111018720Y-109301336D01*
X111009952Y-109313159D01*
X111000066Y-109324066D01*
X110989159Y-109333952D01*
X110977336Y-109342720D01*
X110964710Y-109350288D01*
X110951403Y-109356582D01*
X110937543Y-109361541D01*
X110923264Y-109365118D01*
X110908703Y-109367278D01*
X110894000Y-109368000D01*
X110594000Y-109368000D01*
X110579297Y-109367278D01*
X110564736Y-109365118D01*
X110550457Y-109361541D01*
X110536597Y-109356582D01*
X110523290Y-109350288D01*
X110510664Y-109342720D01*
X110498841Y-109333952D01*
X110487934Y-109324066D01*
X110478048Y-109313159D01*
X110469280Y-109301336D01*
X110461712Y-109288710D01*
X110455418Y-109275403D01*
X110450459Y-109261543D01*
X110446882Y-109247264D01*
X110444722Y-109232703D01*
X110444000Y-109218000D01*
X110444000Y-107568000D01*
X110444722Y-107553297D01*
X110446882Y-107538736D01*
X110450459Y-107524457D01*
X110455418Y-107510597D01*
X110461712Y-107497290D01*
X110469280Y-107484664D01*
X110478048Y-107472841D01*
X110487934Y-107461934D01*
X110498841Y-107452048D01*
X110510664Y-107443280D01*
X110523290Y-107435712D01*
X110536597Y-107429418D01*
X110550457Y-107424459D01*
X110564736Y-107420882D01*
X110579297Y-107418722D01*
X110594000Y-107418000D01*
X110894000Y-107418000D01*
X110908703Y-107418722D01*
G37*
G36*
X112178703Y-107418722D02*
G01*
X112193264Y-107420882D01*
X112207543Y-107424459D01*
X112221403Y-107429418D01*
X112234710Y-107435712D01*
X112247336Y-107443280D01*
X112259159Y-107452048D01*
X112270066Y-107461934D01*
X112279952Y-107472841D01*
X112288720Y-107484664D01*
X112296288Y-107497290D01*
X112302582Y-107510597D01*
X112307541Y-107524457D01*
X112311118Y-107538736D01*
X112313278Y-107553297D01*
X112314000Y-107568000D01*
X112314000Y-109218000D01*
X112313278Y-109232703D01*
X112311118Y-109247264D01*
X112307541Y-109261543D01*
X112302582Y-109275403D01*
X112296288Y-109288710D01*
X112288720Y-109301336D01*
X112279952Y-109313159D01*
X112270066Y-109324066D01*
X112259159Y-109333952D01*
X112247336Y-109342720D01*
X112234710Y-109350288D01*
X112221403Y-109356582D01*
X112207543Y-109361541D01*
X112193264Y-109365118D01*
X112178703Y-109367278D01*
X112164000Y-109368000D01*
X111864000Y-109368000D01*
X111849297Y-109367278D01*
X111834736Y-109365118D01*
X111820457Y-109361541D01*
X111806597Y-109356582D01*
X111793290Y-109350288D01*
X111780664Y-109342720D01*
X111768841Y-109333952D01*
X111757934Y-109324066D01*
X111748048Y-109313159D01*
X111739280Y-109301336D01*
X111731712Y-109288710D01*
X111725418Y-109275403D01*
X111720459Y-109261543D01*
X111716882Y-109247264D01*
X111714722Y-109232703D01*
X111714000Y-109218000D01*
X111714000Y-107568000D01*
X111714722Y-107553297D01*
X111716882Y-107538736D01*
X111720459Y-107524457D01*
X111725418Y-107510597D01*
X111731712Y-107497290D01*
X111739280Y-107484664D01*
X111748048Y-107472841D01*
X111757934Y-107461934D01*
X111768841Y-107452048D01*
X111780664Y-107443280D01*
X111793290Y-107435712D01*
X111806597Y-107429418D01*
X111820457Y-107424459D01*
X111834736Y-107420882D01*
X111849297Y-107418722D01*
X111864000Y-107418000D01*
X112164000Y-107418000D01*
X112178703Y-107418722D01*
G37*
G36*
X113448703Y-107418722D02*
G01*
X113463264Y-107420882D01*
X113477543Y-107424459D01*
X113491403Y-107429418D01*
X113504710Y-107435712D01*
X113517336Y-107443280D01*
X113529159Y-107452048D01*
X113540066Y-107461934D01*
X113549952Y-107472841D01*
X113558720Y-107484664D01*
X113566288Y-107497290D01*
X113572582Y-107510597D01*
X113577541Y-107524457D01*
X113581118Y-107538736D01*
X113583278Y-107553297D01*
X113584000Y-107568000D01*
X113584000Y-109218000D01*
X113583278Y-109232703D01*
X113581118Y-109247264D01*
X113577541Y-109261543D01*
X113572582Y-109275403D01*
X113566288Y-109288710D01*
X113558720Y-109301336D01*
X113549952Y-109313159D01*
X113540066Y-109324066D01*
X113529159Y-109333952D01*
X113517336Y-109342720D01*
X113504710Y-109350288D01*
X113491403Y-109356582D01*
X113477543Y-109361541D01*
X113463264Y-109365118D01*
X113448703Y-109367278D01*
X113434000Y-109368000D01*
X113134000Y-109368000D01*
X113119297Y-109367278D01*
X113104736Y-109365118D01*
X113090457Y-109361541D01*
X113076597Y-109356582D01*
X113063290Y-109350288D01*
X113050664Y-109342720D01*
X113038841Y-109333952D01*
X113027934Y-109324066D01*
X113018048Y-109313159D01*
X113009280Y-109301336D01*
X113001712Y-109288710D01*
X112995418Y-109275403D01*
X112990459Y-109261543D01*
X112986882Y-109247264D01*
X112984722Y-109232703D01*
X112984000Y-109218000D01*
X112984000Y-107568000D01*
X112984722Y-107553297D01*
X112986882Y-107538736D01*
X112990459Y-107524457D01*
X112995418Y-107510597D01*
X113001712Y-107497290D01*
X113009280Y-107484664D01*
X113018048Y-107472841D01*
X113027934Y-107461934D01*
X113038841Y-107452048D01*
X113050664Y-107443280D01*
X113063290Y-107435712D01*
X113076597Y-107429418D01*
X113090457Y-107424459D01*
X113104736Y-107420882D01*
X113119297Y-107418722D01*
X113134000Y-107418000D01*
X113434000Y-107418000D01*
X113448703Y-107418722D01*
G37*
G36*
X113448703Y-102468722D02*
G01*
X113463264Y-102470882D01*
X113477543Y-102474459D01*
X113491403Y-102479418D01*
X113504710Y-102485712D01*
X113517336Y-102493280D01*
X113529159Y-102502048D01*
X113540066Y-102511934D01*
X113549952Y-102522841D01*
X113558720Y-102534664D01*
X113566288Y-102547290D01*
X113572582Y-102560597D01*
X113577541Y-102574457D01*
X113581118Y-102588736D01*
X113583278Y-102603297D01*
X113584000Y-102618000D01*
X113584000Y-104268000D01*
X113583278Y-104282703D01*
X113581118Y-104297264D01*
X113577541Y-104311543D01*
X113572582Y-104325403D01*
X113566288Y-104338710D01*
X113558720Y-104351336D01*
X113549952Y-104363159D01*
X113540066Y-104374066D01*
X113529159Y-104383952D01*
X113517336Y-104392720D01*
X113504710Y-104400288D01*
X113491403Y-104406582D01*
X113477543Y-104411541D01*
X113463264Y-104415118D01*
X113448703Y-104417278D01*
X113434000Y-104418000D01*
X113134000Y-104418000D01*
X113119297Y-104417278D01*
X113104736Y-104415118D01*
X113090457Y-104411541D01*
X113076597Y-104406582D01*
X113063290Y-104400288D01*
X113050664Y-104392720D01*
X113038841Y-104383952D01*
X113027934Y-104374066D01*
X113018048Y-104363159D01*
X113009280Y-104351336D01*
X113001712Y-104338710D01*
X112995418Y-104325403D01*
X112990459Y-104311543D01*
X112986882Y-104297264D01*
X112984722Y-104282703D01*
X112984000Y-104268000D01*
X112984000Y-102618000D01*
X112984722Y-102603297D01*
X112986882Y-102588736D01*
X112990459Y-102574457D01*
X112995418Y-102560597D01*
X113001712Y-102547290D01*
X113009280Y-102534664D01*
X113018048Y-102522841D01*
X113027934Y-102511934D01*
X113038841Y-102502048D01*
X113050664Y-102493280D01*
X113063290Y-102485712D01*
X113076597Y-102479418D01*
X113090457Y-102474459D01*
X113104736Y-102470882D01*
X113119297Y-102468722D01*
X113134000Y-102468000D01*
X113434000Y-102468000D01*
X113448703Y-102468722D01*
G37*
G36*
X112178703Y-102468722D02*
G01*
X112193264Y-102470882D01*
X112207543Y-102474459D01*
X112221403Y-102479418D01*
X112234710Y-102485712D01*
X112247336Y-102493280D01*
X112259159Y-102502048D01*
X112270066Y-102511934D01*
X112279952Y-102522841D01*
X112288720Y-102534664D01*
X112296288Y-102547290D01*
X112302582Y-102560597D01*
X112307541Y-102574457D01*
X112311118Y-102588736D01*
X112313278Y-102603297D01*
X112314000Y-102618000D01*
X112314000Y-104268000D01*
X112313278Y-104282703D01*
X112311118Y-104297264D01*
X112307541Y-104311543D01*
X112302582Y-104325403D01*
X112296288Y-104338710D01*
X112288720Y-104351336D01*
X112279952Y-104363159D01*
X112270066Y-104374066D01*
X112259159Y-104383952D01*
X112247336Y-104392720D01*
X112234710Y-104400288D01*
X112221403Y-104406582D01*
X112207543Y-104411541D01*
X112193264Y-104415118D01*
X112178703Y-104417278D01*
X112164000Y-104418000D01*
X111864000Y-104418000D01*
X111849297Y-104417278D01*
X111834736Y-104415118D01*
X111820457Y-104411541D01*
X111806597Y-104406582D01*
X111793290Y-104400288D01*
X111780664Y-104392720D01*
X111768841Y-104383952D01*
X111757934Y-104374066D01*
X111748048Y-104363159D01*
X111739280Y-104351336D01*
X111731712Y-104338710D01*
X111725418Y-104325403D01*
X111720459Y-104311543D01*
X111716882Y-104297264D01*
X111714722Y-104282703D01*
X111714000Y-104268000D01*
X111714000Y-102618000D01*
X111714722Y-102603297D01*
X111716882Y-102588736D01*
X111720459Y-102574457D01*
X111725418Y-102560597D01*
X111731712Y-102547290D01*
X111739280Y-102534664D01*
X111748048Y-102522841D01*
X111757934Y-102511934D01*
X111768841Y-102502048D01*
X111780664Y-102493280D01*
X111793290Y-102485712D01*
X111806597Y-102479418D01*
X111820457Y-102474459D01*
X111834736Y-102470882D01*
X111849297Y-102468722D01*
X111864000Y-102468000D01*
X112164000Y-102468000D01*
X112178703Y-102468722D01*
G37*
G36*
X110908703Y-102468722D02*
G01*
X110923264Y-102470882D01*
X110937543Y-102474459D01*
X110951403Y-102479418D01*
X110964710Y-102485712D01*
X110977336Y-102493280D01*
X110989159Y-102502048D01*
X111000066Y-102511934D01*
X111009952Y-102522841D01*
X111018720Y-102534664D01*
X111026288Y-102547290D01*
X111032582Y-102560597D01*
X111037541Y-102574457D01*
X111041118Y-102588736D01*
X111043278Y-102603297D01*
X111044000Y-102618000D01*
X111044000Y-104268000D01*
X111043278Y-104282703D01*
X111041118Y-104297264D01*
X111037541Y-104311543D01*
X111032582Y-104325403D01*
X111026288Y-104338710D01*
X111018720Y-104351336D01*
X111009952Y-104363159D01*
X111000066Y-104374066D01*
X110989159Y-104383952D01*
X110977336Y-104392720D01*
X110964710Y-104400288D01*
X110951403Y-104406582D01*
X110937543Y-104411541D01*
X110923264Y-104415118D01*
X110908703Y-104417278D01*
X110894000Y-104418000D01*
X110594000Y-104418000D01*
X110579297Y-104417278D01*
X110564736Y-104415118D01*
X110550457Y-104411541D01*
X110536597Y-104406582D01*
X110523290Y-104400288D01*
X110510664Y-104392720D01*
X110498841Y-104383952D01*
X110487934Y-104374066D01*
X110478048Y-104363159D01*
X110469280Y-104351336D01*
X110461712Y-104338710D01*
X110455418Y-104325403D01*
X110450459Y-104311543D01*
X110446882Y-104297264D01*
X110444722Y-104282703D01*
X110444000Y-104268000D01*
X110444000Y-102618000D01*
X110444722Y-102603297D01*
X110446882Y-102588736D01*
X110450459Y-102574457D01*
X110455418Y-102560597D01*
X110461712Y-102547290D01*
X110469280Y-102534664D01*
X110478048Y-102522841D01*
X110487934Y-102511934D01*
X110498841Y-102502048D01*
X110510664Y-102493280D01*
X110523290Y-102485712D01*
X110536597Y-102479418D01*
X110550457Y-102474459D01*
X110564736Y-102470882D01*
X110579297Y-102468722D01*
X110594000Y-102468000D01*
X110894000Y-102468000D01*
X110908703Y-102468722D01*
G37*
G36*
X109638703Y-102468722D02*
G01*
X109653264Y-102470882D01*
X109667543Y-102474459D01*
X109681403Y-102479418D01*
X109694710Y-102485712D01*
X109707336Y-102493280D01*
X109719159Y-102502048D01*
X109730066Y-102511934D01*
X109739952Y-102522841D01*
X109748720Y-102534664D01*
X109756288Y-102547290D01*
X109762582Y-102560597D01*
X109767541Y-102574457D01*
X109771118Y-102588736D01*
X109773278Y-102603297D01*
X109774000Y-102618000D01*
X109774000Y-104268000D01*
X109773278Y-104282703D01*
X109771118Y-104297264D01*
X109767541Y-104311543D01*
X109762582Y-104325403D01*
X109756288Y-104338710D01*
X109748720Y-104351336D01*
X109739952Y-104363159D01*
X109730066Y-104374066D01*
X109719159Y-104383952D01*
X109707336Y-104392720D01*
X109694710Y-104400288D01*
X109681403Y-104406582D01*
X109667543Y-104411541D01*
X109653264Y-104415118D01*
X109638703Y-104417278D01*
X109624000Y-104418000D01*
X109324000Y-104418000D01*
X109309297Y-104417278D01*
X109294736Y-104415118D01*
X109280457Y-104411541D01*
X109266597Y-104406582D01*
X109253290Y-104400288D01*
X109240664Y-104392720D01*
X109228841Y-104383952D01*
X109217934Y-104374066D01*
X109208048Y-104363159D01*
X109199280Y-104351336D01*
X109191712Y-104338710D01*
X109185418Y-104325403D01*
X109180459Y-104311543D01*
X109176882Y-104297264D01*
X109174722Y-104282703D01*
X109174000Y-104268000D01*
X109174000Y-102618000D01*
X109174722Y-102603297D01*
X109176882Y-102588736D01*
X109180459Y-102574457D01*
X109185418Y-102560597D01*
X109191712Y-102547290D01*
X109199280Y-102534664D01*
X109208048Y-102522841D01*
X109217934Y-102511934D01*
X109228841Y-102502048D01*
X109240664Y-102493280D01*
X109253290Y-102485712D01*
X109266597Y-102479418D01*
X109280457Y-102474459D01*
X109294736Y-102470882D01*
X109309297Y-102468722D01*
X109324000Y-102468000D01*
X109624000Y-102468000D01*
X109638703Y-102468722D01*
G37*
D10*
X111550000Y-77977000D03*
X114900000Y-81027000D03*
X111550000Y-81027000D03*
X114900000Y-77977000D03*
D13*
X106925000Y-77222000D03*
X106925000Y-81782000D03*
D12*
G36*
X113934504Y-111140204D02*
G01*
X113958773Y-111143804D01*
X113982571Y-111149765D01*
X114005671Y-111158030D01*
X114027849Y-111168520D01*
X114048893Y-111181133D01*
X114068598Y-111195747D01*
X114086777Y-111212223D01*
X114103253Y-111230402D01*
X114117867Y-111250107D01*
X114130480Y-111271151D01*
X114140970Y-111293329D01*
X114149235Y-111316429D01*
X114155196Y-111340227D01*
X114158796Y-111364496D01*
X114160000Y-111389000D01*
X114160000Y-112639000D01*
X114158796Y-112663504D01*
X114155196Y-112687773D01*
X114149235Y-112711571D01*
X114140970Y-112734671D01*
X114130480Y-112756849D01*
X114117867Y-112777893D01*
X114103253Y-112797598D01*
X114086777Y-112815777D01*
X114068598Y-112832253D01*
X114048893Y-112846867D01*
X114027849Y-112859480D01*
X114005671Y-112869970D01*
X113982571Y-112878235D01*
X113958773Y-112884196D01*
X113934504Y-112887796D01*
X113910000Y-112889000D01*
X113160000Y-112889000D01*
X113135496Y-112887796D01*
X113111227Y-112884196D01*
X113087429Y-112878235D01*
X113064329Y-112869970D01*
X113042151Y-112859480D01*
X113021107Y-112846867D01*
X113001402Y-112832253D01*
X112983223Y-112815777D01*
X112966747Y-112797598D01*
X112952133Y-112777893D01*
X112939520Y-112756849D01*
X112929030Y-112734671D01*
X112920765Y-112711571D01*
X112914804Y-112687773D01*
X112911204Y-112663504D01*
X112910000Y-112639000D01*
X112910000Y-111389000D01*
X112911204Y-111364496D01*
X112914804Y-111340227D01*
X112920765Y-111316429D01*
X112929030Y-111293329D01*
X112939520Y-111271151D01*
X112952133Y-111250107D01*
X112966747Y-111230402D01*
X112983223Y-111212223D01*
X113001402Y-111195747D01*
X113021107Y-111181133D01*
X113042151Y-111168520D01*
X113064329Y-111158030D01*
X113087429Y-111149765D01*
X113111227Y-111143804D01*
X113135496Y-111140204D01*
X113160000Y-111139000D01*
X113910000Y-111139000D01*
X113934504Y-111140204D01*
G37*
G36*
X116734504Y-111140204D02*
G01*
X116758773Y-111143804D01*
X116782571Y-111149765D01*
X116805671Y-111158030D01*
X116827849Y-111168520D01*
X116848893Y-111181133D01*
X116868598Y-111195747D01*
X116886777Y-111212223D01*
X116903253Y-111230402D01*
X116917867Y-111250107D01*
X116930480Y-111271151D01*
X116940970Y-111293329D01*
X116949235Y-111316429D01*
X116955196Y-111340227D01*
X116958796Y-111364496D01*
X116960000Y-111389000D01*
X116960000Y-112639000D01*
X116958796Y-112663504D01*
X116955196Y-112687773D01*
X116949235Y-112711571D01*
X116940970Y-112734671D01*
X116930480Y-112756849D01*
X116917867Y-112777893D01*
X116903253Y-112797598D01*
X116886777Y-112815777D01*
X116868598Y-112832253D01*
X116848893Y-112846867D01*
X116827849Y-112859480D01*
X116805671Y-112869970D01*
X116782571Y-112878235D01*
X116758773Y-112884196D01*
X116734504Y-112887796D01*
X116710000Y-112889000D01*
X115960000Y-112889000D01*
X115935496Y-112887796D01*
X115911227Y-112884196D01*
X115887429Y-112878235D01*
X115864329Y-112869970D01*
X115842151Y-112859480D01*
X115821107Y-112846867D01*
X115801402Y-112832253D01*
X115783223Y-112815777D01*
X115766747Y-112797598D01*
X115752133Y-112777893D01*
X115739520Y-112756849D01*
X115729030Y-112734671D01*
X115720765Y-112711571D01*
X115714804Y-112687773D01*
X115711204Y-112663504D01*
X115710000Y-112639000D01*
X115710000Y-111389000D01*
X115711204Y-111364496D01*
X115714804Y-111340227D01*
X115720765Y-111316429D01*
X115729030Y-111293329D01*
X115739520Y-111271151D01*
X115752133Y-111250107D01*
X115766747Y-111230402D01*
X115783223Y-111212223D01*
X115801402Y-111195747D01*
X115821107Y-111181133D01*
X115842151Y-111168520D01*
X115864329Y-111158030D01*
X115887429Y-111149765D01*
X115911227Y-111143804D01*
X115935496Y-111140204D01*
X115960000Y-111139000D01*
X116710000Y-111139000D01*
X116734504Y-111140204D01*
G37*
G36*
X116734504Y-114188204D02*
G01*
X116758773Y-114191804D01*
X116782571Y-114197765D01*
X116805671Y-114206030D01*
X116827849Y-114216520D01*
X116848893Y-114229133D01*
X116868598Y-114243747D01*
X116886777Y-114260223D01*
X116903253Y-114278402D01*
X116917867Y-114298107D01*
X116930480Y-114319151D01*
X116940970Y-114341329D01*
X116949235Y-114364429D01*
X116955196Y-114388227D01*
X116958796Y-114412496D01*
X116960000Y-114437000D01*
X116960000Y-115687000D01*
X116958796Y-115711504D01*
X116955196Y-115735773D01*
X116949235Y-115759571D01*
X116940970Y-115782671D01*
X116930480Y-115804849D01*
X116917867Y-115825893D01*
X116903253Y-115845598D01*
X116886777Y-115863777D01*
X116868598Y-115880253D01*
X116848893Y-115894867D01*
X116827849Y-115907480D01*
X116805671Y-115917970D01*
X116782571Y-115926235D01*
X116758773Y-115932196D01*
X116734504Y-115935796D01*
X116710000Y-115937000D01*
X115960000Y-115937000D01*
X115935496Y-115935796D01*
X115911227Y-115932196D01*
X115887429Y-115926235D01*
X115864329Y-115917970D01*
X115842151Y-115907480D01*
X115821107Y-115894867D01*
X115801402Y-115880253D01*
X115783223Y-115863777D01*
X115766747Y-115845598D01*
X115752133Y-115825893D01*
X115739520Y-115804849D01*
X115729030Y-115782671D01*
X115720765Y-115759571D01*
X115714804Y-115735773D01*
X115711204Y-115711504D01*
X115710000Y-115687000D01*
X115710000Y-114437000D01*
X115711204Y-114412496D01*
X115714804Y-114388227D01*
X115720765Y-114364429D01*
X115729030Y-114341329D01*
X115739520Y-114319151D01*
X115752133Y-114298107D01*
X115766747Y-114278402D01*
X115783223Y-114260223D01*
X115801402Y-114243747D01*
X115821107Y-114229133D01*
X115842151Y-114216520D01*
X115864329Y-114206030D01*
X115887429Y-114197765D01*
X115911227Y-114191804D01*
X115935496Y-114188204D01*
X115960000Y-114187000D01*
X116710000Y-114187000D01*
X116734504Y-114188204D01*
G37*
G36*
X113934504Y-114188204D02*
G01*
X113958773Y-114191804D01*
X113982571Y-114197765D01*
X114005671Y-114206030D01*
X114027849Y-114216520D01*
X114048893Y-114229133D01*
X114068598Y-114243747D01*
X114086777Y-114260223D01*
X114103253Y-114278402D01*
X114117867Y-114298107D01*
X114130480Y-114319151D01*
X114140970Y-114341329D01*
X114149235Y-114364429D01*
X114155196Y-114388227D01*
X114158796Y-114412496D01*
X114160000Y-114437000D01*
X114160000Y-115687000D01*
X114158796Y-115711504D01*
X114155196Y-115735773D01*
X114149235Y-115759571D01*
X114140970Y-115782671D01*
X114130480Y-115804849D01*
X114117867Y-115825893D01*
X114103253Y-115845598D01*
X114086777Y-115863777D01*
X114068598Y-115880253D01*
X114048893Y-115894867D01*
X114027849Y-115907480D01*
X114005671Y-115917970D01*
X113982571Y-115926235D01*
X113958773Y-115932196D01*
X113934504Y-115935796D01*
X113910000Y-115937000D01*
X113160000Y-115937000D01*
X113135496Y-115935796D01*
X113111227Y-115932196D01*
X113087429Y-115926235D01*
X113064329Y-115917970D01*
X113042151Y-115907480D01*
X113021107Y-115894867D01*
X113001402Y-115880253D01*
X112983223Y-115863777D01*
X112966747Y-115845598D01*
X112952133Y-115825893D01*
X112939520Y-115804849D01*
X112929030Y-115782671D01*
X112920765Y-115759571D01*
X112914804Y-115735773D01*
X112911204Y-115711504D01*
X112910000Y-115687000D01*
X112910000Y-114437000D01*
X112911204Y-114412496D01*
X112914804Y-114388227D01*
X112920765Y-114364429D01*
X112929030Y-114341329D01*
X112939520Y-114319151D01*
X112952133Y-114298107D01*
X112966747Y-114278402D01*
X112983223Y-114260223D01*
X113001402Y-114243747D01*
X113021107Y-114229133D01*
X113042151Y-114216520D01*
X113064329Y-114206030D01*
X113087429Y-114197765D01*
X113111227Y-114191804D01*
X113135496Y-114188204D01*
X113160000Y-114187000D01*
X113910000Y-114187000D01*
X113934504Y-114188204D01*
G37*
D14*
X101219000Y-103218000D03*
X101219000Y-108618000D03*
D12*
G36*
X111146504Y-114188204D02*
G01*
X111170773Y-114191804D01*
X111194571Y-114197765D01*
X111217671Y-114206030D01*
X111239849Y-114216520D01*
X111260893Y-114229133D01*
X111280598Y-114243747D01*
X111298777Y-114260223D01*
X111315253Y-114278402D01*
X111329867Y-114298107D01*
X111342480Y-114319151D01*
X111352970Y-114341329D01*
X111361235Y-114364429D01*
X111367196Y-114388227D01*
X111370796Y-114412496D01*
X111372000Y-114437000D01*
X111372000Y-115687000D01*
X111370796Y-115711504D01*
X111367196Y-115735773D01*
X111361235Y-115759571D01*
X111352970Y-115782671D01*
X111342480Y-115804849D01*
X111329867Y-115825893D01*
X111315253Y-115845598D01*
X111298777Y-115863777D01*
X111280598Y-115880253D01*
X111260893Y-115894867D01*
X111239849Y-115907480D01*
X111217671Y-115917970D01*
X111194571Y-115926235D01*
X111170773Y-115932196D01*
X111146504Y-115935796D01*
X111122000Y-115937000D01*
X110372000Y-115937000D01*
X110347496Y-115935796D01*
X110323227Y-115932196D01*
X110299429Y-115926235D01*
X110276329Y-115917970D01*
X110254151Y-115907480D01*
X110233107Y-115894867D01*
X110213402Y-115880253D01*
X110195223Y-115863777D01*
X110178747Y-115845598D01*
X110164133Y-115825893D01*
X110151520Y-115804849D01*
X110141030Y-115782671D01*
X110132765Y-115759571D01*
X110126804Y-115735773D01*
X110123204Y-115711504D01*
X110122000Y-115687000D01*
X110122000Y-114437000D01*
X110123204Y-114412496D01*
X110126804Y-114388227D01*
X110132765Y-114364429D01*
X110141030Y-114341329D01*
X110151520Y-114319151D01*
X110164133Y-114298107D01*
X110178747Y-114278402D01*
X110195223Y-114260223D01*
X110213402Y-114243747D01*
X110233107Y-114229133D01*
X110254151Y-114216520D01*
X110276329Y-114206030D01*
X110299429Y-114197765D01*
X110323227Y-114191804D01*
X110347496Y-114188204D01*
X110372000Y-114187000D01*
X111122000Y-114187000D01*
X111146504Y-114188204D01*
G37*
G36*
X108346504Y-114188204D02*
G01*
X108370773Y-114191804D01*
X108394571Y-114197765D01*
X108417671Y-114206030D01*
X108439849Y-114216520D01*
X108460893Y-114229133D01*
X108480598Y-114243747D01*
X108498777Y-114260223D01*
X108515253Y-114278402D01*
X108529867Y-114298107D01*
X108542480Y-114319151D01*
X108552970Y-114341329D01*
X108561235Y-114364429D01*
X108567196Y-114388227D01*
X108570796Y-114412496D01*
X108572000Y-114437000D01*
X108572000Y-115687000D01*
X108570796Y-115711504D01*
X108567196Y-115735773D01*
X108561235Y-115759571D01*
X108552970Y-115782671D01*
X108542480Y-115804849D01*
X108529867Y-115825893D01*
X108515253Y-115845598D01*
X108498777Y-115863777D01*
X108480598Y-115880253D01*
X108460893Y-115894867D01*
X108439849Y-115907480D01*
X108417671Y-115917970D01*
X108394571Y-115926235D01*
X108370773Y-115932196D01*
X108346504Y-115935796D01*
X108322000Y-115937000D01*
X107572000Y-115937000D01*
X107547496Y-115935796D01*
X107523227Y-115932196D01*
X107499429Y-115926235D01*
X107476329Y-115917970D01*
X107454151Y-115907480D01*
X107433107Y-115894867D01*
X107413402Y-115880253D01*
X107395223Y-115863777D01*
X107378747Y-115845598D01*
X107364133Y-115825893D01*
X107351520Y-115804849D01*
X107341030Y-115782671D01*
X107332765Y-115759571D01*
X107326804Y-115735773D01*
X107323204Y-115711504D01*
X107322000Y-115687000D01*
X107322000Y-114437000D01*
X107323204Y-114412496D01*
X107326804Y-114388227D01*
X107332765Y-114364429D01*
X107341030Y-114341329D01*
X107351520Y-114319151D01*
X107364133Y-114298107D01*
X107378747Y-114278402D01*
X107395223Y-114260223D01*
X107413402Y-114243747D01*
X107433107Y-114229133D01*
X107454151Y-114216520D01*
X107476329Y-114206030D01*
X107499429Y-114197765D01*
X107523227Y-114191804D01*
X107547496Y-114188204D01*
X107572000Y-114187000D01*
X108322000Y-114187000D01*
X108346504Y-114188204D01*
G37*
G36*
X111781504Y-84470204D02*
G01*
X111805773Y-84473804D01*
X111829571Y-84479765D01*
X111852671Y-84488030D01*
X111874849Y-84498520D01*
X111895893Y-84511133D01*
X111915598Y-84525747D01*
X111933777Y-84542223D01*
X111950253Y-84560402D01*
X111964867Y-84580107D01*
X111977480Y-84601151D01*
X111987970Y-84623329D01*
X111996235Y-84646429D01*
X112002196Y-84670227D01*
X112005796Y-84694496D01*
X112007000Y-84719000D01*
X112007000Y-85969000D01*
X112005796Y-85993504D01*
X112002196Y-86017773D01*
X111996235Y-86041571D01*
X111987970Y-86064671D01*
X111977480Y-86086849D01*
X111964867Y-86107893D01*
X111950253Y-86127598D01*
X111933777Y-86145777D01*
X111915598Y-86162253D01*
X111895893Y-86176867D01*
X111874849Y-86189480D01*
X111852671Y-86199970D01*
X111829571Y-86208235D01*
X111805773Y-86214196D01*
X111781504Y-86217796D01*
X111757000Y-86219000D01*
X111007000Y-86219000D01*
X110982496Y-86217796D01*
X110958227Y-86214196D01*
X110934429Y-86208235D01*
X110911329Y-86199970D01*
X110889151Y-86189480D01*
X110868107Y-86176867D01*
X110848402Y-86162253D01*
X110830223Y-86145777D01*
X110813747Y-86127598D01*
X110799133Y-86107893D01*
X110786520Y-86086849D01*
X110776030Y-86064671D01*
X110767765Y-86041571D01*
X110761804Y-86017773D01*
X110758204Y-85993504D01*
X110757000Y-85969000D01*
X110757000Y-84719000D01*
X110758204Y-84694496D01*
X110761804Y-84670227D01*
X110767765Y-84646429D01*
X110776030Y-84623329D01*
X110786520Y-84601151D01*
X110799133Y-84580107D01*
X110813747Y-84560402D01*
X110830223Y-84542223D01*
X110848402Y-84525747D01*
X110868107Y-84511133D01*
X110889151Y-84498520D01*
X110911329Y-84488030D01*
X110934429Y-84479765D01*
X110958227Y-84473804D01*
X110982496Y-84470204D01*
X111007000Y-84469000D01*
X111757000Y-84469000D01*
X111781504Y-84470204D01*
G37*
G36*
X108981504Y-84470204D02*
G01*
X109005773Y-84473804D01*
X109029571Y-84479765D01*
X109052671Y-84488030D01*
X109074849Y-84498520D01*
X109095893Y-84511133D01*
X109115598Y-84525747D01*
X109133777Y-84542223D01*
X109150253Y-84560402D01*
X109164867Y-84580107D01*
X109177480Y-84601151D01*
X109187970Y-84623329D01*
X109196235Y-84646429D01*
X109202196Y-84670227D01*
X109205796Y-84694496D01*
X109207000Y-84719000D01*
X109207000Y-85969000D01*
X109205796Y-85993504D01*
X109202196Y-86017773D01*
X109196235Y-86041571D01*
X109187970Y-86064671D01*
X109177480Y-86086849D01*
X109164867Y-86107893D01*
X109150253Y-86127598D01*
X109133777Y-86145777D01*
X109115598Y-86162253D01*
X109095893Y-86176867D01*
X109074849Y-86189480D01*
X109052671Y-86199970D01*
X109029571Y-86208235D01*
X109005773Y-86214196D01*
X108981504Y-86217796D01*
X108957000Y-86219000D01*
X108207000Y-86219000D01*
X108182496Y-86217796D01*
X108158227Y-86214196D01*
X108134429Y-86208235D01*
X108111329Y-86199970D01*
X108089151Y-86189480D01*
X108068107Y-86176867D01*
X108048402Y-86162253D01*
X108030223Y-86145777D01*
X108013747Y-86127598D01*
X107999133Y-86107893D01*
X107986520Y-86086849D01*
X107976030Y-86064671D01*
X107967765Y-86041571D01*
X107961804Y-86017773D01*
X107958204Y-85993504D01*
X107957000Y-85969000D01*
X107957000Y-84719000D01*
X107958204Y-84694496D01*
X107961804Y-84670227D01*
X107967765Y-84646429D01*
X107976030Y-84623329D01*
X107986520Y-84601151D01*
X107999133Y-84580107D01*
X108013747Y-84560402D01*
X108030223Y-84542223D01*
X108048402Y-84525747D01*
X108068107Y-84511133D01*
X108089151Y-84498520D01*
X108111329Y-84488030D01*
X108134429Y-84479765D01*
X108158227Y-84473804D01*
X108182496Y-84470204D01*
X108207000Y-84469000D01*
X108957000Y-84469000D01*
X108981504Y-84470204D01*
G37*
G36*
X111781504Y-95646204D02*
G01*
X111805773Y-95649804D01*
X111829571Y-95655765D01*
X111852671Y-95664030D01*
X111874849Y-95674520D01*
X111895893Y-95687133D01*
X111915598Y-95701747D01*
X111933777Y-95718223D01*
X111950253Y-95736402D01*
X111964867Y-95756107D01*
X111977480Y-95777151D01*
X111987970Y-95799329D01*
X111996235Y-95822429D01*
X112002196Y-95846227D01*
X112005796Y-95870496D01*
X112007000Y-95895000D01*
X112007000Y-97145000D01*
X112005796Y-97169504D01*
X112002196Y-97193773D01*
X111996235Y-97217571D01*
X111987970Y-97240671D01*
X111977480Y-97262849D01*
X111964867Y-97283893D01*
X111950253Y-97303598D01*
X111933777Y-97321777D01*
X111915598Y-97338253D01*
X111895893Y-97352867D01*
X111874849Y-97365480D01*
X111852671Y-97375970D01*
X111829571Y-97384235D01*
X111805773Y-97390196D01*
X111781504Y-97393796D01*
X111757000Y-97395000D01*
X111007000Y-97395000D01*
X110982496Y-97393796D01*
X110958227Y-97390196D01*
X110934429Y-97384235D01*
X110911329Y-97375970D01*
X110889151Y-97365480D01*
X110868107Y-97352867D01*
X110848402Y-97338253D01*
X110830223Y-97321777D01*
X110813747Y-97303598D01*
X110799133Y-97283893D01*
X110786520Y-97262849D01*
X110776030Y-97240671D01*
X110767765Y-97217571D01*
X110761804Y-97193773D01*
X110758204Y-97169504D01*
X110757000Y-97145000D01*
X110757000Y-95895000D01*
X110758204Y-95870496D01*
X110761804Y-95846227D01*
X110767765Y-95822429D01*
X110776030Y-95799329D01*
X110786520Y-95777151D01*
X110799133Y-95756107D01*
X110813747Y-95736402D01*
X110830223Y-95718223D01*
X110848402Y-95701747D01*
X110868107Y-95687133D01*
X110889151Y-95674520D01*
X110911329Y-95664030D01*
X110934429Y-95655765D01*
X110958227Y-95649804D01*
X110982496Y-95646204D01*
X111007000Y-95645000D01*
X111757000Y-95645000D01*
X111781504Y-95646204D01*
G37*
G36*
X108981504Y-95646204D02*
G01*
X109005773Y-95649804D01*
X109029571Y-95655765D01*
X109052671Y-95664030D01*
X109074849Y-95674520D01*
X109095893Y-95687133D01*
X109115598Y-95701747D01*
X109133777Y-95718223D01*
X109150253Y-95736402D01*
X109164867Y-95756107D01*
X109177480Y-95777151D01*
X109187970Y-95799329D01*
X109196235Y-95822429D01*
X109202196Y-95846227D01*
X109205796Y-95870496D01*
X109207000Y-95895000D01*
X109207000Y-97145000D01*
X109205796Y-97169504D01*
X109202196Y-97193773D01*
X109196235Y-97217571D01*
X109187970Y-97240671D01*
X109177480Y-97262849D01*
X109164867Y-97283893D01*
X109150253Y-97303598D01*
X109133777Y-97321777D01*
X109115598Y-97338253D01*
X109095893Y-97352867D01*
X109074849Y-97365480D01*
X109052671Y-97375970D01*
X109029571Y-97384235D01*
X109005773Y-97390196D01*
X108981504Y-97393796D01*
X108957000Y-97395000D01*
X108207000Y-97395000D01*
X108182496Y-97393796D01*
X108158227Y-97390196D01*
X108134429Y-97384235D01*
X108111329Y-97375970D01*
X108089151Y-97365480D01*
X108068107Y-97352867D01*
X108048402Y-97338253D01*
X108030223Y-97321777D01*
X108013747Y-97303598D01*
X107999133Y-97283893D01*
X107986520Y-97262849D01*
X107976030Y-97240671D01*
X107967765Y-97217571D01*
X107961804Y-97193773D01*
X107958204Y-97169504D01*
X107957000Y-97145000D01*
X107957000Y-95895000D01*
X107958204Y-95870496D01*
X107961804Y-95846227D01*
X107967765Y-95822429D01*
X107976030Y-95799329D01*
X107986520Y-95777151D01*
X107999133Y-95756107D01*
X108013747Y-95736402D01*
X108030223Y-95718223D01*
X108048402Y-95701747D01*
X108068107Y-95687133D01*
X108089151Y-95674520D01*
X108111329Y-95664030D01*
X108134429Y-95655765D01*
X108158227Y-95649804D01*
X108182496Y-95646204D01*
X108207000Y-95645000D01*
X108957000Y-95645000D01*
X108981504Y-95646204D01*
G37*
G36*
X96287504Y-73421204D02*
G01*
X96311773Y-73424804D01*
X96335571Y-73430765D01*
X96358671Y-73439030D01*
X96380849Y-73449520D01*
X96401893Y-73462133D01*
X96421598Y-73476747D01*
X96439777Y-73493223D01*
X96456253Y-73511402D01*
X96470867Y-73531107D01*
X96483480Y-73552151D01*
X96493970Y-73574329D01*
X96502235Y-73597429D01*
X96508196Y-73621227D01*
X96511796Y-73645496D01*
X96513000Y-73670000D01*
X96513000Y-74920000D01*
X96511796Y-74944504D01*
X96508196Y-74968773D01*
X96502235Y-74992571D01*
X96493970Y-75015671D01*
X96483480Y-75037849D01*
X96470867Y-75058893D01*
X96456253Y-75078598D01*
X96439777Y-75096777D01*
X96421598Y-75113253D01*
X96401893Y-75127867D01*
X96380849Y-75140480D01*
X96358671Y-75150970D01*
X96335571Y-75159235D01*
X96311773Y-75165196D01*
X96287504Y-75168796D01*
X96263000Y-75170000D01*
X95513000Y-75170000D01*
X95488496Y-75168796D01*
X95464227Y-75165196D01*
X95440429Y-75159235D01*
X95417329Y-75150970D01*
X95395151Y-75140480D01*
X95374107Y-75127867D01*
X95354402Y-75113253D01*
X95336223Y-75096777D01*
X95319747Y-75078598D01*
X95305133Y-75058893D01*
X95292520Y-75037849D01*
X95282030Y-75015671D01*
X95273765Y-74992571D01*
X95267804Y-74968773D01*
X95264204Y-74944504D01*
X95263000Y-74920000D01*
X95263000Y-73670000D01*
X95264204Y-73645496D01*
X95267804Y-73621227D01*
X95273765Y-73597429D01*
X95282030Y-73574329D01*
X95292520Y-73552151D01*
X95305133Y-73531107D01*
X95319747Y-73511402D01*
X95336223Y-73493223D01*
X95354402Y-73476747D01*
X95374107Y-73462133D01*
X95395151Y-73449520D01*
X95417329Y-73439030D01*
X95440429Y-73430765D01*
X95464227Y-73424804D01*
X95488496Y-73421204D01*
X95513000Y-73420000D01*
X96263000Y-73420000D01*
X96287504Y-73421204D01*
G37*
G36*
X93487504Y-73421204D02*
G01*
X93511773Y-73424804D01*
X93535571Y-73430765D01*
X93558671Y-73439030D01*
X93580849Y-73449520D01*
X93601893Y-73462133D01*
X93621598Y-73476747D01*
X93639777Y-73493223D01*
X93656253Y-73511402D01*
X93670867Y-73531107D01*
X93683480Y-73552151D01*
X93693970Y-73574329D01*
X93702235Y-73597429D01*
X93708196Y-73621227D01*
X93711796Y-73645496D01*
X93713000Y-73670000D01*
X93713000Y-74920000D01*
X93711796Y-74944504D01*
X93708196Y-74968773D01*
X93702235Y-74992571D01*
X93693970Y-75015671D01*
X93683480Y-75037849D01*
X93670867Y-75058893D01*
X93656253Y-75078598D01*
X93639777Y-75096777D01*
X93621598Y-75113253D01*
X93601893Y-75127867D01*
X93580849Y-75140480D01*
X93558671Y-75150970D01*
X93535571Y-75159235D01*
X93511773Y-75165196D01*
X93487504Y-75168796D01*
X93463000Y-75170000D01*
X92713000Y-75170000D01*
X92688496Y-75168796D01*
X92664227Y-75165196D01*
X92640429Y-75159235D01*
X92617329Y-75150970D01*
X92595151Y-75140480D01*
X92574107Y-75127867D01*
X92554402Y-75113253D01*
X92536223Y-75096777D01*
X92519747Y-75078598D01*
X92505133Y-75058893D01*
X92492520Y-75037849D01*
X92482030Y-75015671D01*
X92473765Y-74992571D01*
X92467804Y-74968773D01*
X92464204Y-74944504D01*
X92463000Y-74920000D01*
X92463000Y-73670000D01*
X92464204Y-73645496D01*
X92467804Y-73621227D01*
X92473765Y-73597429D01*
X92482030Y-73574329D01*
X92492520Y-73552151D01*
X92505133Y-73531107D01*
X92519747Y-73511402D01*
X92536223Y-73493223D01*
X92554402Y-73476747D01*
X92574107Y-73462133D01*
X92595151Y-73449520D01*
X92617329Y-73439030D01*
X92640429Y-73430765D01*
X92664227Y-73424804D01*
X92688496Y-73421204D01*
X92713000Y-73420000D01*
X93463000Y-73420000D01*
X93487504Y-73421204D01*
G37*
G36*
X103272504Y-73421204D02*
G01*
X103296773Y-73424804D01*
X103320571Y-73430765D01*
X103343671Y-73439030D01*
X103365849Y-73449520D01*
X103386893Y-73462133D01*
X103406598Y-73476747D01*
X103424777Y-73493223D01*
X103441253Y-73511402D01*
X103455867Y-73531107D01*
X103468480Y-73552151D01*
X103478970Y-73574329D01*
X103487235Y-73597429D01*
X103493196Y-73621227D01*
X103496796Y-73645496D01*
X103498000Y-73670000D01*
X103498000Y-74920000D01*
X103496796Y-74944504D01*
X103493196Y-74968773D01*
X103487235Y-74992571D01*
X103478970Y-75015671D01*
X103468480Y-75037849D01*
X103455867Y-75058893D01*
X103441253Y-75078598D01*
X103424777Y-75096777D01*
X103406598Y-75113253D01*
X103386893Y-75127867D01*
X103365849Y-75140480D01*
X103343671Y-75150970D01*
X103320571Y-75159235D01*
X103296773Y-75165196D01*
X103272504Y-75168796D01*
X103248000Y-75170000D01*
X102498000Y-75170000D01*
X102473496Y-75168796D01*
X102449227Y-75165196D01*
X102425429Y-75159235D01*
X102402329Y-75150970D01*
X102380151Y-75140480D01*
X102359107Y-75127867D01*
X102339402Y-75113253D01*
X102321223Y-75096777D01*
X102304747Y-75078598D01*
X102290133Y-75058893D01*
X102277520Y-75037849D01*
X102267030Y-75015671D01*
X102258765Y-74992571D01*
X102252804Y-74968773D01*
X102249204Y-74944504D01*
X102248000Y-74920000D01*
X102248000Y-73670000D01*
X102249204Y-73645496D01*
X102252804Y-73621227D01*
X102258765Y-73597429D01*
X102267030Y-73574329D01*
X102277520Y-73552151D01*
X102290133Y-73531107D01*
X102304747Y-73511402D01*
X102321223Y-73493223D01*
X102339402Y-73476747D01*
X102359107Y-73462133D01*
X102380151Y-73449520D01*
X102402329Y-73439030D01*
X102425429Y-73430765D01*
X102449227Y-73424804D01*
X102473496Y-73421204D01*
X102498000Y-73420000D01*
X103248000Y-73420000D01*
X103272504Y-73421204D01*
G37*
G36*
X100472504Y-73421204D02*
G01*
X100496773Y-73424804D01*
X100520571Y-73430765D01*
X100543671Y-73439030D01*
X100565849Y-73449520D01*
X100586893Y-73462133D01*
X100606598Y-73476747D01*
X100624777Y-73493223D01*
X100641253Y-73511402D01*
X100655867Y-73531107D01*
X100668480Y-73552151D01*
X100678970Y-73574329D01*
X100687235Y-73597429D01*
X100693196Y-73621227D01*
X100696796Y-73645496D01*
X100698000Y-73670000D01*
X100698000Y-74920000D01*
X100696796Y-74944504D01*
X100693196Y-74968773D01*
X100687235Y-74992571D01*
X100678970Y-75015671D01*
X100668480Y-75037849D01*
X100655867Y-75058893D01*
X100641253Y-75078598D01*
X100624777Y-75096777D01*
X100606598Y-75113253D01*
X100586893Y-75127867D01*
X100565849Y-75140480D01*
X100543671Y-75150970D01*
X100520571Y-75159235D01*
X100496773Y-75165196D01*
X100472504Y-75168796D01*
X100448000Y-75170000D01*
X99698000Y-75170000D01*
X99673496Y-75168796D01*
X99649227Y-75165196D01*
X99625429Y-75159235D01*
X99602329Y-75150970D01*
X99580151Y-75140480D01*
X99559107Y-75127867D01*
X99539402Y-75113253D01*
X99521223Y-75096777D01*
X99504747Y-75078598D01*
X99490133Y-75058893D01*
X99477520Y-75037849D01*
X99467030Y-75015671D01*
X99458765Y-74992571D01*
X99452804Y-74968773D01*
X99449204Y-74944504D01*
X99448000Y-74920000D01*
X99448000Y-73670000D01*
X99449204Y-73645496D01*
X99452804Y-73621227D01*
X99458765Y-73597429D01*
X99467030Y-73574329D01*
X99477520Y-73552151D01*
X99490133Y-73531107D01*
X99504747Y-73511402D01*
X99521223Y-73493223D01*
X99539402Y-73476747D01*
X99559107Y-73462133D01*
X99580151Y-73449520D01*
X99602329Y-73439030D01*
X99625429Y-73430765D01*
X99649227Y-73424804D01*
X99673496Y-73421204D01*
X99698000Y-73420000D01*
X100448000Y-73420000D01*
X100472504Y-73421204D01*
G37*
G36*
X103272504Y-76215204D02*
G01*
X103296773Y-76218804D01*
X103320571Y-76224765D01*
X103343671Y-76233030D01*
X103365849Y-76243520D01*
X103386893Y-76256133D01*
X103406598Y-76270747D01*
X103424777Y-76287223D01*
X103441253Y-76305402D01*
X103455867Y-76325107D01*
X103468480Y-76346151D01*
X103478970Y-76368329D01*
X103487235Y-76391429D01*
X103493196Y-76415227D01*
X103496796Y-76439496D01*
X103498000Y-76464000D01*
X103498000Y-77714000D01*
X103496796Y-77738504D01*
X103493196Y-77762773D01*
X103487235Y-77786571D01*
X103478970Y-77809671D01*
X103468480Y-77831849D01*
X103455867Y-77852893D01*
X103441253Y-77872598D01*
X103424777Y-77890777D01*
X103406598Y-77907253D01*
X103386893Y-77921867D01*
X103365849Y-77934480D01*
X103343671Y-77944970D01*
X103320571Y-77953235D01*
X103296773Y-77959196D01*
X103272504Y-77962796D01*
X103248000Y-77964000D01*
X102498000Y-77964000D01*
X102473496Y-77962796D01*
X102449227Y-77959196D01*
X102425429Y-77953235D01*
X102402329Y-77944970D01*
X102380151Y-77934480D01*
X102359107Y-77921867D01*
X102339402Y-77907253D01*
X102321223Y-77890777D01*
X102304747Y-77872598D01*
X102290133Y-77852893D01*
X102277520Y-77831849D01*
X102267030Y-77809671D01*
X102258765Y-77786571D01*
X102252804Y-77762773D01*
X102249204Y-77738504D01*
X102248000Y-77714000D01*
X102248000Y-76464000D01*
X102249204Y-76439496D01*
X102252804Y-76415227D01*
X102258765Y-76391429D01*
X102267030Y-76368329D01*
X102277520Y-76346151D01*
X102290133Y-76325107D01*
X102304747Y-76305402D01*
X102321223Y-76287223D01*
X102339402Y-76270747D01*
X102359107Y-76256133D01*
X102380151Y-76243520D01*
X102402329Y-76233030D01*
X102425429Y-76224765D01*
X102449227Y-76218804D01*
X102473496Y-76215204D01*
X102498000Y-76214000D01*
X103248000Y-76214000D01*
X103272504Y-76215204D01*
G37*
G36*
X100472504Y-76215204D02*
G01*
X100496773Y-76218804D01*
X100520571Y-76224765D01*
X100543671Y-76233030D01*
X100565849Y-76243520D01*
X100586893Y-76256133D01*
X100606598Y-76270747D01*
X100624777Y-76287223D01*
X100641253Y-76305402D01*
X100655867Y-76325107D01*
X100668480Y-76346151D01*
X100678970Y-76368329D01*
X100687235Y-76391429D01*
X100693196Y-76415227D01*
X100696796Y-76439496D01*
X100698000Y-76464000D01*
X100698000Y-77714000D01*
X100696796Y-77738504D01*
X100693196Y-77762773D01*
X100687235Y-77786571D01*
X100678970Y-77809671D01*
X100668480Y-77831849D01*
X100655867Y-77852893D01*
X100641253Y-77872598D01*
X100624777Y-77890777D01*
X100606598Y-77907253D01*
X100586893Y-77921867D01*
X100565849Y-77934480D01*
X100543671Y-77944970D01*
X100520571Y-77953235D01*
X100496773Y-77959196D01*
X100472504Y-77962796D01*
X100448000Y-77964000D01*
X99698000Y-77964000D01*
X99673496Y-77962796D01*
X99649227Y-77959196D01*
X99625429Y-77953235D01*
X99602329Y-77944970D01*
X99580151Y-77934480D01*
X99559107Y-77921867D01*
X99539402Y-77907253D01*
X99521223Y-77890777D01*
X99504747Y-77872598D01*
X99490133Y-77852893D01*
X99477520Y-77831849D01*
X99467030Y-77809671D01*
X99458765Y-77786571D01*
X99452804Y-77762773D01*
X99449204Y-77738504D01*
X99448000Y-77714000D01*
X99448000Y-76464000D01*
X99449204Y-76439496D01*
X99452804Y-76415227D01*
X99458765Y-76391429D01*
X99467030Y-76368329D01*
X99477520Y-76346151D01*
X99490133Y-76325107D01*
X99504747Y-76305402D01*
X99521223Y-76287223D01*
X99539402Y-76270747D01*
X99559107Y-76256133D01*
X99580151Y-76243520D01*
X99602329Y-76233030D01*
X99625429Y-76224765D01*
X99649227Y-76218804D01*
X99673496Y-76215204D01*
X99698000Y-76214000D01*
X100448000Y-76214000D01*
X100472504Y-76215204D01*
G37*
G36*
X96287504Y-76215204D02*
G01*
X96311773Y-76218804D01*
X96335571Y-76224765D01*
X96358671Y-76233030D01*
X96380849Y-76243520D01*
X96401893Y-76256133D01*
X96421598Y-76270747D01*
X96439777Y-76287223D01*
X96456253Y-76305402D01*
X96470867Y-76325107D01*
X96483480Y-76346151D01*
X96493970Y-76368329D01*
X96502235Y-76391429D01*
X96508196Y-76415227D01*
X96511796Y-76439496D01*
X96513000Y-76464000D01*
X96513000Y-77714000D01*
X96511796Y-77738504D01*
X96508196Y-77762773D01*
X96502235Y-77786571D01*
X96493970Y-77809671D01*
X96483480Y-77831849D01*
X96470867Y-77852893D01*
X96456253Y-77872598D01*
X96439777Y-77890777D01*
X96421598Y-77907253D01*
X96401893Y-77921867D01*
X96380849Y-77934480D01*
X96358671Y-77944970D01*
X96335571Y-77953235D01*
X96311773Y-77959196D01*
X96287504Y-77962796D01*
X96263000Y-77964000D01*
X95513000Y-77964000D01*
X95488496Y-77962796D01*
X95464227Y-77959196D01*
X95440429Y-77953235D01*
X95417329Y-77944970D01*
X95395151Y-77934480D01*
X95374107Y-77921867D01*
X95354402Y-77907253D01*
X95336223Y-77890777D01*
X95319747Y-77872598D01*
X95305133Y-77852893D01*
X95292520Y-77831849D01*
X95282030Y-77809671D01*
X95273765Y-77786571D01*
X95267804Y-77762773D01*
X95264204Y-77738504D01*
X95263000Y-77714000D01*
X95263000Y-76464000D01*
X95264204Y-76439496D01*
X95267804Y-76415227D01*
X95273765Y-76391429D01*
X95282030Y-76368329D01*
X95292520Y-76346151D01*
X95305133Y-76325107D01*
X95319747Y-76305402D01*
X95336223Y-76287223D01*
X95354402Y-76270747D01*
X95374107Y-76256133D01*
X95395151Y-76243520D01*
X95417329Y-76233030D01*
X95440429Y-76224765D01*
X95464227Y-76218804D01*
X95488496Y-76215204D01*
X95513000Y-76214000D01*
X96263000Y-76214000D01*
X96287504Y-76215204D01*
G37*
G36*
X93487504Y-76215204D02*
G01*
X93511773Y-76218804D01*
X93535571Y-76224765D01*
X93558671Y-76233030D01*
X93580849Y-76243520D01*
X93601893Y-76256133D01*
X93621598Y-76270747D01*
X93639777Y-76287223D01*
X93656253Y-76305402D01*
X93670867Y-76325107D01*
X93683480Y-76346151D01*
X93693970Y-76368329D01*
X93702235Y-76391429D01*
X93708196Y-76415227D01*
X93711796Y-76439496D01*
X93713000Y-76464000D01*
X93713000Y-77714000D01*
X93711796Y-77738504D01*
X93708196Y-77762773D01*
X93702235Y-77786571D01*
X93693970Y-77809671D01*
X93683480Y-77831849D01*
X93670867Y-77852893D01*
X93656253Y-77872598D01*
X93639777Y-77890777D01*
X93621598Y-77907253D01*
X93601893Y-77921867D01*
X93580849Y-77934480D01*
X93558671Y-77944970D01*
X93535571Y-77953235D01*
X93511773Y-77959196D01*
X93487504Y-77962796D01*
X93463000Y-77964000D01*
X92713000Y-77964000D01*
X92688496Y-77962796D01*
X92664227Y-77959196D01*
X92640429Y-77953235D01*
X92617329Y-77944970D01*
X92595151Y-77934480D01*
X92574107Y-77921867D01*
X92554402Y-77907253D01*
X92536223Y-77890777D01*
X92519747Y-77872598D01*
X92505133Y-77852893D01*
X92492520Y-77831849D01*
X92482030Y-77809671D01*
X92473765Y-77786571D01*
X92467804Y-77762773D01*
X92464204Y-77738504D01*
X92463000Y-77714000D01*
X92463000Y-76464000D01*
X92464204Y-76439496D01*
X92467804Y-76415227D01*
X92473765Y-76391429D01*
X92482030Y-76368329D01*
X92492520Y-76346151D01*
X92505133Y-76325107D01*
X92519747Y-76305402D01*
X92536223Y-76287223D01*
X92554402Y-76270747D01*
X92574107Y-76256133D01*
X92595151Y-76243520D01*
X92617329Y-76233030D01*
X92640429Y-76224765D01*
X92664227Y-76218804D01*
X92688496Y-76215204D01*
X92713000Y-76214000D01*
X93463000Y-76214000D01*
X93487504Y-76215204D01*
G37*
M02*
