G04 #@! TF.GenerationSoftware,KiCad,Pcbnew,5.1.5-1.fc30*
G04 #@! TF.CreationDate,2020-12-14T14:28:46-06:00*
G04 #@! TF.ProjectId,auxiliary_power,61757869-6c69-4617-9279-5f706f776572,rev?*
G04 #@! TF.SameCoordinates,Original*
G04 #@! TF.FileFunction,Paste,Top*
G04 #@! TF.FilePolarity,Positive*
%FSLAX46Y46*%
G04 Gerber Fmt 4.6, Leading zero omitted, Abs format (unit mm)*
G04 Created by KiCad (PCBNEW 5.1.5-1.fc30) date 2020-12-14 14:28:46*
%MOMM*%
%LPD*%
G04 APERTURE LIST*
%ADD10R,0.650000X1.060000*%
%ADD11R,5.400000X2.900000*%
%ADD12C,0.100000*%
G04 APERTURE END LIST*
D10*
X93665000Y-74592000D03*
X95565000Y-74592000D03*
X95565000Y-76792000D03*
X94615000Y-76792000D03*
X93665000Y-76792000D03*
X100650000Y-74592000D03*
X102550000Y-74592000D03*
X102550000Y-76792000D03*
X101600000Y-76792000D03*
X100650000Y-76792000D03*
D11*
X96139000Y-110260000D03*
X96139000Y-100560000D03*
D12*
G36*
X117853504Y-99789204D02*
G01*
X117877773Y-99792804D01*
X117901571Y-99798765D01*
X117924671Y-99807030D01*
X117946849Y-99817520D01*
X117967893Y-99830133D01*
X117987598Y-99844747D01*
X118005777Y-99861223D01*
X118022253Y-99879402D01*
X118036867Y-99899107D01*
X118049480Y-99920151D01*
X118059970Y-99942329D01*
X118068235Y-99965429D01*
X118074196Y-99989227D01*
X118077796Y-100013496D01*
X118079000Y-100038000D01*
X118079000Y-101638000D01*
X118077796Y-101662504D01*
X118074196Y-101686773D01*
X118068235Y-101710571D01*
X118059970Y-101733671D01*
X118049480Y-101755849D01*
X118036867Y-101776893D01*
X118022253Y-101796598D01*
X118005777Y-101814777D01*
X117987598Y-101831253D01*
X117967893Y-101845867D01*
X117946849Y-101858480D01*
X117924671Y-101868970D01*
X117901571Y-101877235D01*
X117877773Y-101883196D01*
X117853504Y-101886796D01*
X117829000Y-101888000D01*
X113729000Y-101888000D01*
X113704496Y-101886796D01*
X113680227Y-101883196D01*
X113656429Y-101877235D01*
X113633329Y-101868970D01*
X113611151Y-101858480D01*
X113590107Y-101845867D01*
X113570402Y-101831253D01*
X113552223Y-101814777D01*
X113535747Y-101796598D01*
X113521133Y-101776893D01*
X113508520Y-101755849D01*
X113498030Y-101733671D01*
X113489765Y-101710571D01*
X113483804Y-101686773D01*
X113480204Y-101662504D01*
X113479000Y-101638000D01*
X113479000Y-100038000D01*
X113480204Y-100013496D01*
X113483804Y-99989227D01*
X113489765Y-99965429D01*
X113498030Y-99942329D01*
X113508520Y-99920151D01*
X113521133Y-99899107D01*
X113535747Y-99879402D01*
X113552223Y-99861223D01*
X113570402Y-99844747D01*
X113590107Y-99830133D01*
X113611151Y-99817520D01*
X113633329Y-99807030D01*
X113656429Y-99798765D01*
X113680227Y-99792804D01*
X113704496Y-99789204D01*
X113729000Y-99788000D01*
X117829000Y-99788000D01*
X117853504Y-99789204D01*
G37*
G36*
X109053504Y-99789204D02*
G01*
X109077773Y-99792804D01*
X109101571Y-99798765D01*
X109124671Y-99807030D01*
X109146849Y-99817520D01*
X109167893Y-99830133D01*
X109187598Y-99844747D01*
X109205777Y-99861223D01*
X109222253Y-99879402D01*
X109236867Y-99899107D01*
X109249480Y-99920151D01*
X109259970Y-99942329D01*
X109268235Y-99965429D01*
X109274196Y-99989227D01*
X109277796Y-100013496D01*
X109279000Y-100038000D01*
X109279000Y-101638000D01*
X109277796Y-101662504D01*
X109274196Y-101686773D01*
X109268235Y-101710571D01*
X109259970Y-101733671D01*
X109249480Y-101755849D01*
X109236867Y-101776893D01*
X109222253Y-101796598D01*
X109205777Y-101814777D01*
X109187598Y-101831253D01*
X109167893Y-101845867D01*
X109146849Y-101858480D01*
X109124671Y-101868970D01*
X109101571Y-101877235D01*
X109077773Y-101883196D01*
X109053504Y-101886796D01*
X109029000Y-101888000D01*
X104929000Y-101888000D01*
X104904496Y-101886796D01*
X104880227Y-101883196D01*
X104856429Y-101877235D01*
X104833329Y-101868970D01*
X104811151Y-101858480D01*
X104790107Y-101845867D01*
X104770402Y-101831253D01*
X104752223Y-101814777D01*
X104735747Y-101796598D01*
X104721133Y-101776893D01*
X104708520Y-101755849D01*
X104698030Y-101733671D01*
X104689765Y-101710571D01*
X104683804Y-101686773D01*
X104680204Y-101662504D01*
X104679000Y-101638000D01*
X104679000Y-100038000D01*
X104680204Y-100013496D01*
X104683804Y-99989227D01*
X104689765Y-99965429D01*
X104698030Y-99942329D01*
X104708520Y-99920151D01*
X104721133Y-99899107D01*
X104735747Y-99879402D01*
X104752223Y-99861223D01*
X104770402Y-99844747D01*
X104790107Y-99830133D01*
X104811151Y-99817520D01*
X104833329Y-99807030D01*
X104856429Y-99798765D01*
X104880227Y-99792804D01*
X104904496Y-99789204D01*
X104929000Y-99788000D01*
X109029000Y-99788000D01*
X109053504Y-99789204D01*
G37*
G36*
X117003504Y-110711204D02*
G01*
X117027773Y-110714804D01*
X117051571Y-110720765D01*
X117074671Y-110729030D01*
X117096849Y-110739520D01*
X117117893Y-110752133D01*
X117137598Y-110766747D01*
X117155777Y-110783223D01*
X117172253Y-110801402D01*
X117186867Y-110821107D01*
X117199480Y-110842151D01*
X117209970Y-110864329D01*
X117218235Y-110887429D01*
X117224196Y-110911227D01*
X117227796Y-110935496D01*
X117229000Y-110960000D01*
X117229000Y-112560000D01*
X117227796Y-112584504D01*
X117224196Y-112608773D01*
X117218235Y-112632571D01*
X117209970Y-112655671D01*
X117199480Y-112677849D01*
X117186867Y-112698893D01*
X117172253Y-112718598D01*
X117155777Y-112736777D01*
X117137598Y-112753253D01*
X117117893Y-112767867D01*
X117096849Y-112780480D01*
X117074671Y-112790970D01*
X117051571Y-112799235D01*
X117027773Y-112805196D01*
X117003504Y-112808796D01*
X116979000Y-112810000D01*
X112979000Y-112810000D01*
X112954496Y-112808796D01*
X112930227Y-112805196D01*
X112906429Y-112799235D01*
X112883329Y-112790970D01*
X112861151Y-112780480D01*
X112840107Y-112767867D01*
X112820402Y-112753253D01*
X112802223Y-112736777D01*
X112785747Y-112718598D01*
X112771133Y-112698893D01*
X112758520Y-112677849D01*
X112748030Y-112655671D01*
X112739765Y-112632571D01*
X112733804Y-112608773D01*
X112730204Y-112584504D01*
X112729000Y-112560000D01*
X112729000Y-110960000D01*
X112730204Y-110935496D01*
X112733804Y-110911227D01*
X112739765Y-110887429D01*
X112748030Y-110864329D01*
X112758520Y-110842151D01*
X112771133Y-110821107D01*
X112785747Y-110801402D01*
X112802223Y-110783223D01*
X112820402Y-110766747D01*
X112840107Y-110752133D01*
X112861151Y-110739520D01*
X112883329Y-110729030D01*
X112906429Y-110720765D01*
X112930227Y-110714804D01*
X112954496Y-110711204D01*
X112979000Y-110710000D01*
X116979000Y-110710000D01*
X117003504Y-110711204D01*
G37*
G36*
X109803504Y-110711204D02*
G01*
X109827773Y-110714804D01*
X109851571Y-110720765D01*
X109874671Y-110729030D01*
X109896849Y-110739520D01*
X109917893Y-110752133D01*
X109937598Y-110766747D01*
X109955777Y-110783223D01*
X109972253Y-110801402D01*
X109986867Y-110821107D01*
X109999480Y-110842151D01*
X110009970Y-110864329D01*
X110018235Y-110887429D01*
X110024196Y-110911227D01*
X110027796Y-110935496D01*
X110029000Y-110960000D01*
X110029000Y-112560000D01*
X110027796Y-112584504D01*
X110024196Y-112608773D01*
X110018235Y-112632571D01*
X110009970Y-112655671D01*
X109999480Y-112677849D01*
X109986867Y-112698893D01*
X109972253Y-112718598D01*
X109955777Y-112736777D01*
X109937598Y-112753253D01*
X109917893Y-112767867D01*
X109896849Y-112780480D01*
X109874671Y-112790970D01*
X109851571Y-112799235D01*
X109827773Y-112805196D01*
X109803504Y-112808796D01*
X109779000Y-112810000D01*
X105779000Y-112810000D01*
X105754496Y-112808796D01*
X105730227Y-112805196D01*
X105706429Y-112799235D01*
X105683329Y-112790970D01*
X105661151Y-112780480D01*
X105640107Y-112767867D01*
X105620402Y-112753253D01*
X105602223Y-112736777D01*
X105585747Y-112718598D01*
X105571133Y-112698893D01*
X105558520Y-112677849D01*
X105548030Y-112655671D01*
X105539765Y-112632571D01*
X105533804Y-112608773D01*
X105530204Y-112584504D01*
X105529000Y-112560000D01*
X105529000Y-110960000D01*
X105530204Y-110935496D01*
X105533804Y-110911227D01*
X105539765Y-110887429D01*
X105548030Y-110864329D01*
X105558520Y-110842151D01*
X105571133Y-110821107D01*
X105585747Y-110801402D01*
X105602223Y-110783223D01*
X105620402Y-110766747D01*
X105640107Y-110752133D01*
X105661151Y-110739520D01*
X105683329Y-110729030D01*
X105706429Y-110720765D01*
X105730227Y-110714804D01*
X105754496Y-110711204D01*
X105779000Y-110710000D01*
X109779000Y-110710000D01*
X109803504Y-110711204D01*
G37*
G36*
X116203504Y-88863204D02*
G01*
X116227773Y-88866804D01*
X116251571Y-88872765D01*
X116274671Y-88881030D01*
X116296849Y-88891520D01*
X116317893Y-88904133D01*
X116337598Y-88918747D01*
X116355777Y-88935223D01*
X116372253Y-88953402D01*
X116386867Y-88973107D01*
X116399480Y-88994151D01*
X116409970Y-89016329D01*
X116418235Y-89039429D01*
X116424196Y-89063227D01*
X116427796Y-89087496D01*
X116429000Y-89112000D01*
X116429000Y-90212000D01*
X116427796Y-90236504D01*
X116424196Y-90260773D01*
X116418235Y-90284571D01*
X116409970Y-90307671D01*
X116399480Y-90329849D01*
X116386867Y-90350893D01*
X116372253Y-90370598D01*
X116355777Y-90388777D01*
X116337598Y-90405253D01*
X116317893Y-90419867D01*
X116296849Y-90432480D01*
X116274671Y-90442970D01*
X116251571Y-90451235D01*
X116227773Y-90457196D01*
X116203504Y-90460796D01*
X116179000Y-90462000D01*
X112754000Y-90462000D01*
X112729496Y-90460796D01*
X112705227Y-90457196D01*
X112681429Y-90451235D01*
X112658329Y-90442970D01*
X112636151Y-90432480D01*
X112615107Y-90419867D01*
X112595402Y-90405253D01*
X112577223Y-90388777D01*
X112560747Y-90370598D01*
X112546133Y-90350893D01*
X112533520Y-90329849D01*
X112523030Y-90307671D01*
X112514765Y-90284571D01*
X112508804Y-90260773D01*
X112505204Y-90236504D01*
X112504000Y-90212000D01*
X112504000Y-89112000D01*
X112505204Y-89087496D01*
X112508804Y-89063227D01*
X112514765Y-89039429D01*
X112523030Y-89016329D01*
X112533520Y-88994151D01*
X112546133Y-88973107D01*
X112560747Y-88953402D01*
X112577223Y-88935223D01*
X112595402Y-88918747D01*
X112615107Y-88904133D01*
X112636151Y-88891520D01*
X112658329Y-88881030D01*
X112681429Y-88872765D01*
X112705227Y-88866804D01*
X112729496Y-88863204D01*
X112754000Y-88862000D01*
X116179000Y-88862000D01*
X116203504Y-88863204D01*
G37*
G36*
X110028504Y-88863204D02*
G01*
X110052773Y-88866804D01*
X110076571Y-88872765D01*
X110099671Y-88881030D01*
X110121849Y-88891520D01*
X110142893Y-88904133D01*
X110162598Y-88918747D01*
X110180777Y-88935223D01*
X110197253Y-88953402D01*
X110211867Y-88973107D01*
X110224480Y-88994151D01*
X110234970Y-89016329D01*
X110243235Y-89039429D01*
X110249196Y-89063227D01*
X110252796Y-89087496D01*
X110254000Y-89112000D01*
X110254000Y-90212000D01*
X110252796Y-90236504D01*
X110249196Y-90260773D01*
X110243235Y-90284571D01*
X110234970Y-90307671D01*
X110224480Y-90329849D01*
X110211867Y-90350893D01*
X110197253Y-90370598D01*
X110180777Y-90388777D01*
X110162598Y-90405253D01*
X110142893Y-90419867D01*
X110121849Y-90432480D01*
X110099671Y-90442970D01*
X110076571Y-90451235D01*
X110052773Y-90457196D01*
X110028504Y-90460796D01*
X110004000Y-90462000D01*
X106579000Y-90462000D01*
X106554496Y-90460796D01*
X106530227Y-90457196D01*
X106506429Y-90451235D01*
X106483329Y-90442970D01*
X106461151Y-90432480D01*
X106440107Y-90419867D01*
X106420402Y-90405253D01*
X106402223Y-90388777D01*
X106385747Y-90370598D01*
X106371133Y-90350893D01*
X106358520Y-90329849D01*
X106348030Y-90307671D01*
X106339765Y-90284571D01*
X106333804Y-90260773D01*
X106330204Y-90236504D01*
X106329000Y-90212000D01*
X106329000Y-89112000D01*
X106330204Y-89087496D01*
X106333804Y-89063227D01*
X106339765Y-89039429D01*
X106348030Y-89016329D01*
X106358520Y-88994151D01*
X106371133Y-88973107D01*
X106385747Y-88953402D01*
X106402223Y-88935223D01*
X106420402Y-88918747D01*
X106440107Y-88904133D01*
X106461151Y-88891520D01*
X106483329Y-88881030D01*
X106506429Y-88872765D01*
X106530227Y-88866804D01*
X106554496Y-88863204D01*
X106579000Y-88862000D01*
X110004000Y-88862000D01*
X110028504Y-88863204D01*
G37*
G36*
X116203504Y-78322204D02*
G01*
X116227773Y-78325804D01*
X116251571Y-78331765D01*
X116274671Y-78340030D01*
X116296849Y-78350520D01*
X116317893Y-78363133D01*
X116337598Y-78377747D01*
X116355777Y-78394223D01*
X116372253Y-78412402D01*
X116386867Y-78432107D01*
X116399480Y-78453151D01*
X116409970Y-78475329D01*
X116418235Y-78498429D01*
X116424196Y-78522227D01*
X116427796Y-78546496D01*
X116429000Y-78571000D01*
X116429000Y-79671000D01*
X116427796Y-79695504D01*
X116424196Y-79719773D01*
X116418235Y-79743571D01*
X116409970Y-79766671D01*
X116399480Y-79788849D01*
X116386867Y-79809893D01*
X116372253Y-79829598D01*
X116355777Y-79847777D01*
X116337598Y-79864253D01*
X116317893Y-79878867D01*
X116296849Y-79891480D01*
X116274671Y-79901970D01*
X116251571Y-79910235D01*
X116227773Y-79916196D01*
X116203504Y-79919796D01*
X116179000Y-79921000D01*
X112754000Y-79921000D01*
X112729496Y-79919796D01*
X112705227Y-79916196D01*
X112681429Y-79910235D01*
X112658329Y-79901970D01*
X112636151Y-79891480D01*
X112615107Y-79878867D01*
X112595402Y-79864253D01*
X112577223Y-79847777D01*
X112560747Y-79829598D01*
X112546133Y-79809893D01*
X112533520Y-79788849D01*
X112523030Y-79766671D01*
X112514765Y-79743571D01*
X112508804Y-79719773D01*
X112505204Y-79695504D01*
X112504000Y-79671000D01*
X112504000Y-78571000D01*
X112505204Y-78546496D01*
X112508804Y-78522227D01*
X112514765Y-78498429D01*
X112523030Y-78475329D01*
X112533520Y-78453151D01*
X112546133Y-78432107D01*
X112560747Y-78412402D01*
X112577223Y-78394223D01*
X112595402Y-78377747D01*
X112615107Y-78363133D01*
X112636151Y-78350520D01*
X112658329Y-78340030D01*
X112681429Y-78331765D01*
X112705227Y-78325804D01*
X112729496Y-78322204D01*
X112754000Y-78321000D01*
X116179000Y-78321000D01*
X116203504Y-78322204D01*
G37*
G36*
X110028504Y-78322204D02*
G01*
X110052773Y-78325804D01*
X110076571Y-78331765D01*
X110099671Y-78340030D01*
X110121849Y-78350520D01*
X110142893Y-78363133D01*
X110162598Y-78377747D01*
X110180777Y-78394223D01*
X110197253Y-78412402D01*
X110211867Y-78432107D01*
X110224480Y-78453151D01*
X110234970Y-78475329D01*
X110243235Y-78498429D01*
X110249196Y-78522227D01*
X110252796Y-78546496D01*
X110254000Y-78571000D01*
X110254000Y-79671000D01*
X110252796Y-79695504D01*
X110249196Y-79719773D01*
X110243235Y-79743571D01*
X110234970Y-79766671D01*
X110224480Y-79788849D01*
X110211867Y-79809893D01*
X110197253Y-79829598D01*
X110180777Y-79847777D01*
X110162598Y-79864253D01*
X110142893Y-79878867D01*
X110121849Y-79891480D01*
X110099671Y-79901970D01*
X110076571Y-79910235D01*
X110052773Y-79916196D01*
X110028504Y-79919796D01*
X110004000Y-79921000D01*
X106579000Y-79921000D01*
X106554496Y-79919796D01*
X106530227Y-79916196D01*
X106506429Y-79910235D01*
X106483329Y-79901970D01*
X106461151Y-79891480D01*
X106440107Y-79878867D01*
X106420402Y-79864253D01*
X106402223Y-79847777D01*
X106385747Y-79829598D01*
X106371133Y-79809893D01*
X106358520Y-79788849D01*
X106348030Y-79766671D01*
X106339765Y-79743571D01*
X106333804Y-79719773D01*
X106330204Y-79695504D01*
X106329000Y-79671000D01*
X106329000Y-78571000D01*
X106330204Y-78546496D01*
X106333804Y-78522227D01*
X106339765Y-78498429D01*
X106348030Y-78475329D01*
X106358520Y-78453151D01*
X106371133Y-78432107D01*
X106385747Y-78412402D01*
X106402223Y-78394223D01*
X106420402Y-78377747D01*
X106440107Y-78363133D01*
X106461151Y-78350520D01*
X106483329Y-78340030D01*
X106506429Y-78331765D01*
X106530227Y-78325804D01*
X106554496Y-78322204D01*
X106579000Y-78321000D01*
X110004000Y-78321000D01*
X110028504Y-78322204D01*
G37*
M02*
